/* XPM */
static char *_03911bab5164059f94c68212037a5ad67vRyFOFEsyD9ahU[] = {
/* columns rows colors chars-per-pixel */
"32 32 2 1 ",
"  c None",
". c #FDB000",
/* pixels */
"                                ",
"                                ",
"        ................        ",
"       ..               .       ",
"       ............. ....       ",
"      . ..........     ...      ",
"      ...........  .    ..      ",
"     . .......... ..     ..     ",
"     ............     .. . .    ",
"      ...... .....    .  ...    ",
"   .............        ... .   ",
" .................   ........   ",
".............  ..... .........  ",
".............   ..... ......... ",
"..............    .... ........ ",
" ...............     ......... .",
"     .....   .....   ......... .",
" ..........   ...... .......... ",
"  ..........    .... .......... ",
"  . ..........    .. .........  ",
"   .....  ......   . ..... ..   ",
"   . ....   ...... . ........   ",
"    ......    ..............    ",
"    ........    ...........     ",
"     .........   ..........     ",
"      ..  ..... ............    ",
"      . .   ................    ",
"       ...   ..............     ",
"       . ............. ....     ",
"        ...............         ",
"                                ",
"                                "
};
