/* XPM */
static char *_91a3759f18d451dcafe8ded090f9238Z0m3V7XcN6E4opAy[] = {
/* columns rows colors chars-per-pixel */
"16 16 2 1 ",
"  c None",
". c #FDB000",
/* pixels */
"                ",
"    ........    ",
"   ......  ..   ",
"   .......  ..  ",
"  .......  ...  ",
" ........  .... ",
"....... .. .... ",
"........ .......",
".....  .........",
" ...... ....... ",
" ... .... ..... ",
"  .... .......  ",
"   ...........  ",
"   .. ........  ",
"    .........   ",
"                "
};
