/* XPM */
static char *eb892d77a7c647bc8ec827c62f4a707c6G4uLzhhHHeC4jWV[] = {
/* columns rows colors chars-per-pixel */
"64 64 2 1 ",
"  c None",
". c #FDB000",
/* pixels */
"                                                                ",
"                                                                ",
"                                                                ",
"                                                                ",
"                                                                ",
"                ................................                ",
"               ..                              ..               ",
"               .. ............................  ..              ",
"              .. .............................. ..              ",
"              .  ....................       .... ..             ",
"             .. ....................          ..  .             ",
"             .  ...................    ..      .. ..            ",
"            .. ...................     ..       .. .            ",
"           .. ....................   . ..        . ..           ",
"           .  ....................   ....        .. ..          ",
"          .. .....................   ...     ..  .. ..          ",
"          .  .....................    .      ..   .. ..         ",
"         .. ......................         ....   ..  .         ",
"         .  .            ..........        ....  .... ..        ",
"           ..............        ..        ...   ..... .        ",
"       ........................                  ..... ..       ",
"     ..........................                 ....... ..      ",
"   ...........................  ...           .........  .      ",
"  ..........................  .......     .............. ..     ",
" ..........................  ..........   ..............  .     ",
" ........................      ..........  .............. ..    ",
"........................        .........   .............. ..   ",
"......................  ..        ....... .  ............. ..   ",
" ...................  ......        ..... .. .............. ..  ",
" .................  .........         ... ... .............  .  ",
"  ..............  .............        .. .... ............. .. ",
"   ..........   ....   ..........         ....  ............. . ",
"              ......     ..........       ..... ............. . ",
"         ..........       ..........      ...... ........... .. ",
"  .. ...............        ..........   .......  .......... .  ",
"   . .................        .......... ........ ......... ..  ",
"   .. .................         .................. ........ .   ",
"    .  ..................        ................. ....... ..   ",
"    .. ....................        ................ ..... ..    ",
"     .. .........  ..........        ..............  .... ..    ",
"     .. ........     .........         ............. ... ..     ",
"      .. .......      ..........       .............  .. .      ",
"       . .......        ..........     .............. . ..      ",
"       .. ........        ..........  ...............   .       ",
"        .  ........        .............. ............ ..       ",
"        .. ..........        ............ ............ .        ",
"         .. ...........        .......... ............          ",
"         .. ............         ........ ............          ",
"          .. .............        ....... .............         ",
"           .  ..  ..........      ........ ............         ",
"           .. ..    ..........   ......... ............         ",
"            .  .      .................... ............         ",
"            .. ..      .................... ...........         ",
"             .. ..       .................. ...........         ",
"              . ...        ................  ..........         ",
"              .. ....   .................... .........          ",
"               .  ..........................  ........          ",
"               ..                              ......           ",
"                .............................                   ",
"                                                                ",
"                                                                ",
"                                                                ",
"                                                                ",
"                                                                "
};
