/* XPM */
static char *e4b28ff1d0b24bd9eddcf3d51be196ca07tiqLWhy4IeT28r[] = {
/* columns rows colors chars-per-pixel */
"128 128 2 1 ",
"  c None",
". c #FDB000",
/* pixels */
"                                                                                                                                ",
"                                                                                                                                ",
"                                                                                                                                ",
"                                                    ........................                                                    ",
"                                                   .........................                                                    ",
"                                                   ..........................                                                   ",
"                                                  .....                  ....                                                   ",
"                                                  ....                    ....                                                  ",
"                                                 ....                     .....                                                 ",
"                                                .....                      ....                                                 ",
"                                                ....                       .....                                                ",
"                                               .....                        ....                                                ",
"                                               ....                          ....                                               ",
"                                              ....                           ....                                               ",
"                                              ....                            ....                                              ",
"                                             ....                             .....                                             ",
"                                            .....                              ....                                             ",
"                                            ....                               .....                                            ",
"                                           ....                                 ....                                            ",
"                                           ....                                  ....                                           ",
"                                          ....                                   ....                                           ",
"                                          ....                                    ....                                          ",
"                                         ....                                     ....                                          ",
"                                          ....                                    ....                                          ",
"               ........................   .....                                  ....    .......................                ",
"               ........................    ....                                 .....   .........................               ",
"              ..........................    ....                                ....    ..........................              ",
"             ............................   ....                               ....    ...........................              ",
"             ............................    ....                              ....   .............................             ",
"            ..............................   ....                             ....    .............................             ",
"            ..............................    ....                           .....   ...............................            ",
"           ................................   .....                          ....    ...............................            ",
"           ................................    ....                         .....   .................................           ",
"          ..................................    ....                        ....    ..................................          ",
"         ....................................   ....                       ....    ...................................          ",
"         ....................................    ....                      ....   .....................................         ",
"        ......................................   .....                    ....    .....................................         ",
"        ......................................    ....                   .....   .......................................        ",
"       ........................................   ...........................    .......................................        ",
"       ........................................    ..........................   .........................................       ",
"      ..........................................    ........................    ..........................................      ",
"     ............................................   .......................    ...........................................      ",
"     ............................................                             .............................................     ",
"     ............................................                             .............................................     ",
"     ............................................                              ............................................     ",
"      ..........................................                               ...........................................      ",
"      ..........................................     .....................      .........................................       ",
"       ........................................      ...............    ...     .........................................       ",
"       ........................................     ..............        ..     .......................................        ",
"        ......................................     ...............   .     .     .......................................        ",
"        ......................................     ..............    .      .     .....................................         ",
"         ....................................     ...............  ...      .      ....................................         ",
"          ..................................      ...............   .    .. ..     ...................................          ",
"          ..................................     ................       ... ...     .................................           ",
"           ................................                .......      ..  ...     .................................           ",
"           ................................    ...............              ....     ...............................            ",
"            ..............................  ...................            .....     ...............................            ",
"            .................................................. ....       .......     .............................             ",
"             ...............................................  ......   ..........      ............................             ",
"              .............................................    .......  ..........     ...........................              ",
"              ...........................................       ......   ..........     .........................               ",
"               ........................  ............... ...      .... . ..........     .........................               ",
"               ........................  ............. .......      .. .. ..........     .......................                ",
"                                          .........  ...........       ... .........                                            ",
"                                            ..    .....   .......      ..............                                           ",
"                                              ........      .......    .... ........                                            ",
"               ........................     ............      ....... ...... .......     .......................                ",
"               ........................      .............     ....................     .........................               ",
"              ..........................     ..............      ............ .....     ..........................              ",
"             .....                  .....     ....... .......      ...............     ....                   ....              ",
"             ....                    ....     ......   ........     .......... ..     .....                   .....             ",
"            .....                    .....     .....     .......     .......... .     ....                     ....             ",
"            ....                      ....      .....      .......  .. ........      .....                      ....            ",
"           ....                        ....     .......     .......... .........     ....                       ....            ",
"           ....                        ....      .......      ........ .........    ....                         ....           ",
"          ....                          ....     .........      ...... .........    ....                         .....          ",
"         .....                          .....     ..........     ...............   ....                           ....          ",
"         ....                            ....     ..  ........  ....... ........  .....                           .....         ",
"        .....                             ....     .    ............... ......... ....                             ....         ",
"        ....                              ....      .     ............. .............                               ....        ",
"       ....                                ....     ..     ............. ............                               ....        ",
"       ....                                .....     ................... ...........                                 ....       ",
"      ....                                  ....      ..................  ..........                                 .....      ",
"     .....                                  .....                              ....                                   ....      ",
"     ....                                    ....                             .....                                    ....     ",
"     ....                                    ....                             ....                                     ....     ",
"     ....                                    ....    ......................    ....                                   .....     ",
"      ....                                  ....    ........................   ....                                   ....      ",
"      ....                                  ....   .........................    ....                                 ....       ",
"       ....                                ....    ..........................   .....                                ....       ",
"       .....                              .....   ............................   ....                               ....        ",
"        ....                              ....    ............................   .....                             .....        ",
"        .....                            .....   ..............................   ....                             ....         ",
"         ....                            ....    ..............................    ....                           .....         ",
"          ....                          ....    ................................   ....                           ....          ",
"          ....                          ....   .................................    ....                         ....           ",
"           ....                        ....    ..................................   .....                        ....           ",
"           .....                      .....   ....................................   ....                       ....            ",
"            ....                      ....    ....................................   .....                     .....            ",
"            .....                    .....   ......................................   ....                     ....             ",
"             ....                    ....   .......................................    ....                   ....              ",
"              ..........................    ........................................   ...........................              ",
"              ..........................   .........................................    .........................               ",
"               ........................    ..........................................   .........................               ",
"               ........................   ............................................   .......................                ",
"                                          ............................................                                          ",
"                                         .............................................                                          ",
"                                          ............................................                                          ",
"                                           ..........................................                                           ",
"                                           ..........................................                                           ",
"                                            ........................................                                            ",
"                                            ........................................                                            ",
"                                             ......................................                                             ",
"                                             .....................................                                              ",
"                                              ....................................                                              ",
"                                               ..................................                                               ",
"                                               ..................................                                               ",
"                                                ................................                                                ",
"                                                ...............................                                                 ",
"                                                 ..............................                                                 ",
"                                                 .............................                                                  ",
"                                                  ............................                                                  ",
"                                                   ..........................                                                   ",
"                                                   ..........................                                                   ",
"                                                    ........................                                                    ",
"                                                    .......................                                                     ",
"                                                                                                                                ",
"                                                                                                                                "
};
